<svg class="svg-icon" style="width: 1em;height: 1em;vertical-align: middle;fill: currentColor;overflow: hidden;" viewBox="0 0 1024 1024" version="1.1" xmlns="http://www.w3.org/2000/svg"><path d="M512 512.002m-511.998 0a511.998 511.998 0 1 0 1023.996 0 511.998 511.998 0 1 0-1023.996 0Z" fill="#323232" /><path d="M512 512.002m-407.00441 0a407.00441 407.00441 0 1 0 814.00882 0 407.00441 407.00441 0 1 0-814.00882 0Z" fill="#494A4A" /><path d="M805.442854 724.033172l4.397983-6.499975-197.611229-124.401514 0.078-0.241999c0.387998-1.221995 0.757997-2.44799 1.125996-3.681986 0.215999-0.731997 0.443998-1.463994 0.649997-2.199991 0.381999-1.317995 0.733997-2.63399 1.089996-3.949985 0.171999-0.659997 0.359999-1.303995 0.527998-1.963992 0.381999-1.479994 0.741997-2.963988 1.093996-4.449983 0.118-0.501998 0.245999-0.995996 0.359998-1.491994 0.433998-1.889993 0.845997-3.785985 1.229995-5.677978l0.064-0.293998c0.825997-4.099984 1.541994-8.213968 2.143992-12.341952 0.018-0.131999 0.038-0.257999 0.052-0.383999 0.273999-1.897993 0.525998-3.795985 0.755997-5.699977 0.042-0.385998 0.08-0.777997 0.125999-1.163996 0.189999-1.643994 0.367999-3.289987 0.521998-4.941981 0.042-0.495998 0.078-0.991996 0.124-1.487994 0.131999-1.545994 0.259999-3.093988 0.359998-4.635982 0.038-0.549998 0.066-1.097996 0.1-1.647993 0.086-1.495994 0.167999-2.999988 0.227999-4.503983 0.026-0.565998 0.04-1.137996 0.056-1.707993 0.05-1.487994 0.09-2.971988 0.111999-4.459982 0.01-0.575998 0.012-1.149996 0.014-1.727994 0.012-1.483994 0.012-2.969988-0.004-4.463982l-0.028-1.699994c-0.016-0.783997-0.042-1.567994-0.065999-2.35399 0.094-1.139996 0.181999-2.275991 0.257999-3.415987 0.036-0.543998 0.064-1.085996 0.097999-1.631994 0.086-1.499994 0.169999-3.003988 0.227999-4.507982 0.022-0.569998 0.04-1.143996 0.056-1.713993 0.052-1.487994 0.09-2.971988 0.112-4.457983l0.018-1.719993c0.008-1.485994 0.004-2.977988-0.01-4.463983a162.905364 162.905364 0 0 0-0.03-1.711993 224.869122 224.869122 0 0 0-0.191999-6.151976c-0.066-1.533994-0.149999-3.055988-0.248-4.585982-0.034-0.517998-0.062-1.035996-0.099999-1.553994a250.239023 250.239023 0 0 0-0.381999-4.747982c-0.04-0.457998-0.078-0.915996-0.121999-1.375994-0.159999-1.665993-0.339999-3.335987-0.533998-4.995981-0.044-0.375999-0.082-0.745997-0.126-1.117995-0.217999-1.815993-0.459998-3.623986-0.721997-5.433979-0.032-0.223999-0.056-0.441998-0.089999-0.663998a249.153027 249.153027 0 0 0-6.539975-30.843879c-15.927938-57.113777-52.413795-110.02157-106.803583-146.835426-116.635544-78.941692-271.40494-53.967789-345.682649 55.777782-26.811895 39.617845-39.463846 84.859669-39.207847 130.221491l-0.795997 24.729903 0.123999 0.084c0.062 80.693685 41.01984 161.901368 115.915548 212.59117 54.387788 36.811856 117.071543 51.015801 176.013312 44.579825 0.012-0.004 0.018-0.004 0.028-0.004a249.129027 249.129027 0 0 0 31.061879-5.393978 268.88295 268.88295 0 0 0 5.955976-1.511995l1.011996-0.277998c1.635994-0.447998 3.273987-0.905996 4.897981-1.377995l1.297995-0.395999c1.531994-0.457998 3.053988-0.925996 4.571982-1.413994 0.487998-0.157999 0.973996-0.325999 1.461995-0.485998a215.11916 215.11916 0 0 0 5.917977-2.025992c1.413994-0.499998 2.821989-1.019996 4.221983-1.553994a259.830985 259.830985 0 0 0 5.731978-2.255991c0.541998-0.221999 1.081996-0.439998 1.625993-0.667998a228.019109 228.019109 0 0 0 4.065984-1.745993c0.531998-0.229999 1.067996-0.467998 1.601994-0.703997 1.355995-0.609998 2.707989-1.233995 4.053984-1.871993 0.511998-0.233999 1.021996-0.471998 1.527994-0.717997 1.383995-0.665997 2.759989-1.343995 4.129984-2.039992 0.457998-0.229999 0.919996-0.457998 1.373995-0.689997 1.457994-0.743997 2.909989-1.511994 4.351983-2.289991 0.359999-0.191999 0.713997-0.377999 1.073996-0.577998 1.661994-0.901996 3.307987-1.831993 4.95198-2.783989 0.128-0.078 0.263999-0.145999 0.391999-0.219999a230.4991 230.4991 0 0 0 10.651958-6.575975c0.108-0.066 0.207999-0.143999 0.311999-0.207999a232.479092 232.479092 0 0 0 4.749981-3.213987c0.431998-0.299999 0.861997-0.609998 1.289995-0.915997 1.237995-0.871997 2.47199-1.749993 3.691986-2.639989 0.551998-0.409998 1.099996-0.827997 1.649994-1.241996a199.58722 199.58722 0 0 0 3.235987-2.45799c0.611998-0.475998 1.213995-0.957996 1.821993-1.441994 0.993996-0.787997 1.993992-1.585994 2.979988-2.389991 0.635998-0.527998 1.267995-1.061996 1.897993-1.593994a186.339272 186.339272 0 0 0 4.741981-4.089984c0.895997-0.795997 1.791993-1.601994 2.67999-2.41599 0.649997-0.593998 1.293995-1.199995 1.939992-1.799993a246.979035 246.979035 0 0 0 4.499983-4.339983c0.433998-0.433998 0.873997-0.855997 1.303994-1.289995l195.941235 142.301444 0.06-0.088 0.048 0.038 56.19978-83.033676 0.663998-26.051898-4.409983 6.479975z" fill="#323232" /><path d="M654.981441 572.977762c0.265999-0.615998 0.523998-1.249995 0.787997-1.869993a238.833067 238.833067 0 0 0 2.58999-6.369975c0.355999-0.897996 0.701997-1.799993 1.041996-2.703989 0.469998-1.245995 0.925996-2.49199 1.375995-3.737986 0.317999-0.889997 0.635998-1.773993 0.945996-2.659989 0.445998-1.285995 0.873997-2.57599 1.297995-3.863985 0.281999-0.855997 0.565998-1.711993 0.837997-2.56999 0.425998-1.347995 0.833997-2.699989 1.235995-4.055984 0.239999-0.805997 0.485998-1.611994 0.715997-2.421991a225.999117 225.999117 0 0 0 1.199995-4.345983c0.191999-0.719997 0.393998-1.433994 0.579998-2.157992 0.421998-1.631994 0.813997-3.265987 1.205996-4.90198 0.128-0.549998 0.269999-1.089996 0.393998-1.639994 0.475998-2.079992 0.929996-4.161984 1.355995-6.249976l0.065999-0.323998c0.913996-4.507982 1.701993-9.039965 2.363991-13.583947l0.058-0.415999c0.301999-2.093992 0.577998-4.179984 0.829997-6.273975 0.048-0.423998 0.09-0.855997 0.137999-1.277995 0.207999-1.811993 0.401998-3.627986 0.569998-5.439979 0.05-0.547998 0.09-1.089996 0.139999-1.639994 0.143999-1.699993 0.283999-3.401987 0.393999-5.10198 0.04-0.601998 0.072-1.207995 0.105999-1.809993 0.1-1.651994 0.187999-3.303987 0.253999-4.95998 0.028-0.625998 0.042-1.249995 0.064-1.877993 0.054-1.631994 0.098-3.269987 0.122-4.911981 0.01-0.631998 0.012-1.263995 0.016-1.897992 0.014-1.635994 0.01-3.271987-0.006-4.909981l-0.03-1.871993c-0.034-1.663994-0.08-3.321987-0.14-4.97598l-0.071999-1.789993c-0.078-1.693993-0.167999-3.393987-0.277999-5.09198-0.036-0.551998-0.068-1.105996-0.108-1.661994-0.124-1.761993-0.265999-3.523986-0.423998-5.285979-0.044-0.483998-0.084-0.963996-0.132-1.449995-0.175999-1.869993-0.375999-3.741985-0.597997-5.617978-0.042-0.367999-0.078-0.729997-0.124-1.097995a275.888922 275.888922 0 0 0-0.815997-6.159976c-0.026-0.183999-0.048-0.367999-0.075999-0.543998a273.518932 273.518932 0 0 0-7.195972-33.963868l-0.004-0.019999c-17.531932-62.849754-57.683775-121.077527-117.539541-161.587369-128.355499-86.875661-298.672833-59.389768-380.412514 61.38376-21.707915 32.065875-34.979863 67.487736-40.373842 103.845594l-1.567994-3.827985-1.351995 41.915837 0.137999 0.091999c0.068 88.795653 45.137824 178.167304 127.559502 233.949086 59.855766 40.509842 128.833497 56.145781 193.701244 49.059809 0.01-0.006 0.018-0.006 0.017999-0.006 11.559955-1.259995 22.97591-3.241987 34.193867-5.937977a286.384881 286.384881 0 0 0 6.553974-1.657994c0.373999-0.102 0.741997-0.207999 1.111996-0.305998 1.801993-0.495998 3.603986-0.999996 5.391979-1.521994l1.427994-0.429999c1.683993-0.503998 3.363987-1.019996 5.031981-1.553994 0.537998-0.171999 1.073996-0.355999 1.611993-0.531998 1.605994-0.527998 3.205987-1.065996 4.801982-1.625993 0.569998-0.199999 1.139996-0.405998 1.709993-0.609998a226.379116 226.379116 0 0 0 6.415975-2.385991c1.517994-0.591998 3.029988-1.191995 4.537982-1.805993a226.315116 226.315116 0 0 0 6.261976-2.655989c0.583998-0.253999 1.175995-0.515998 1.757993-0.771997a281.878899 281.878899 0 0 0 4.467982-2.061992c0.559998-0.261999 1.121996-0.515998 1.679994-0.785997a233.599088 233.599088 0 0 0 4.543982-2.245991c0.505998-0.253999 1.011996-0.499998 1.513994-0.761997 1.605994-0.815997 3.199988-1.663994 4.787981-2.51799 0.393998-0.209999 0.789997-0.417998 1.181996-0.631998 1.827993-0.995996 3.641986-2.019992 5.447979-3.061988 0.141999-0.082 0.291999-0.159999 0.433998-0.245999a252.785013 252.785013 0 0 0 11.721954-7.233972c0.12-0.078 0.227999-0.155999 0.343999-0.229999 1.757993-1.155995 3.497986-2.331991 5.225979-3.531986 0.475998-0.331999 0.947996-0.677997 1.419995-1.011996 1.359995-0.957996 2.717989-1.921992 4.057984-2.905989 0.611998-0.445998 1.211995-0.911996 1.819993-1.363994 1.191995-0.891997 2.381991-1.789993 3.559986-2.70799 0.671997-0.523998 1.335995-1.055996 2.003992-1.583994 1.099996-0.875997 2.195991-1.749993 3.279987-2.641989 0.703997-0.571998 1.395995-1.159995 2.091992-1.745994 1.035996-0.867997 2.065992-1.737993 3.089988-2.627989 0.709997-0.617998 1.419994-1.249995 2.125992-1.875993a216.451154 216.451154 0 0 0 7.917969-7.341971c0.707997-0.685997 1.413994-1.377995 2.113991-2.073992 0.483998-0.475998 0.965996-0.941996 1.441995-1.417995l215.627158 156.601389 61.957758-91.541643-225.52312-141.971445z" fill="#CDCCCA" /><path d="M635.711517 594.821676c-81.765681 120.709528-252.035015 148.163421-380.366514 61.307761-81.545681-55.193784-126.523506-143.26544-127.531502-231.135097-2.415991 91.127644 42.827833 183.815282 127.459502 241.097058 128.357499 86.875661 298.674833 59.393768 380.416514-61.38176 1.539994-2.271991 3.009988-4.569982 4.459982-6.877973l-4.437982-3.009989z" fill="#BE3D27" /><path d="M252.868816 646.629333a280.636904 264.056969 34.089 1 0 295.997304-437.367039 280.636904 264.056969 34.089 1 0-295.997304 437.367039Z" fill="#E65439" /><path d="M446.558256 695.719282c74.23971-8.111968 143.091441-45.99182 186.71527-110.445568 43.62383-64.453748 53.191792-142.449444 33.129871-214.385163L446.558256 695.719282z" fill="#E8E9EC" /><path d="M876.312577 693.65329l-300.374827-189.097261-48.773809 72.063719 76.193702 55.335783-0.433998 17.93993 215.749157 156.543389 61.847758-91.379643 0.725998-28.667888z" fill="#2A81C2" /><path d="M881.242558 686.369319l-61.953758 91.539642-287.194878-208.575185 48.773809-72.061718z" fill="#1669AD" /><path d="M439.264284 279.346909m-73.075714 0a73.075715 73.075715 0 1 0 146.151429 0 73.075715 73.075715 0 1 0-146.151429 0Z" fill="#E8E9EC" /><path d="M507.380018 252.911012a72.781716 72.781716 0 0 1-12.481951 44.373827c-22.623912 33.417869-68.055734 42.175835-101.477604 19.555923a72.695716 72.695716 0 0 1-27.153894-34.079867c1.055996 22.213913 12.203952 43.679829 32.041875 57.105777 33.421869 22.617912 78.853692 13.863946 101.475604-19.561923 13.955945-20.625919 15.951938-45.809821 7.59597-67.393737z" fill="#CDCCCA" /><path d="M362.508584 439.472283m-73.075715 0a73.075715 73.075715 0 1 0 146.151429 0 73.075715 73.075715 0 1 0-146.151429 0Z" fill="#BE3D27" /></svg>